<svg width="41" height="41" viewBox="0 0 41 41" fill="none" xmlns="http://www.w3.org/2000/svg">
<path d="M19.6458 37.5834C17.0264 37.5834 14.8056 36.6722 12.9833 34.85C11.1611 33.0278 10.25 30.807 10.25 28.1875V10.25C10.25 8.37085 10.9191 6.76217 12.2573 5.42398C13.5955 4.08578 15.2042 3.41669 17.0833 3.41669C18.9625 3.41669 20.5712 4.08578 21.9094 5.42398C23.2476 6.76217 23.9167 8.37085 23.9167 10.25V26.4792C23.9167 27.675 23.5038 28.6858 22.6781 29.5115C21.8524 30.3372 20.8417 30.75 19.6458 30.75C18.45 30.75 17.4392 30.3372 16.6135 29.5115C15.7878 28.6858 15.375 27.675 15.375 26.4792V10.25H17.9375V26.4792C17.9375 26.9632 18.1012 27.3689 18.4286 27.6964C18.7561 28.0238 19.1618 28.1875 19.6458 28.1875C20.1299 28.1875 20.5356 28.0238 20.863 27.6964C21.1905 27.3689 21.3542 26.9632 21.3542 26.4792V10.25C21.3542 9.05419 20.9413 8.04342 20.1156 7.21773C19.2899 6.39203 18.2792 5.97919 17.0833 5.97919C15.8875 5.97919 14.8767 6.39203 14.051 7.21773C13.2253 8.04342 12.8125 9.05419 12.8125 10.25V28.1875C12.8125 30.0667 13.4816 31.6754 14.8198 33.0136C16.158 34.3518 17.7667 35.0209 19.6458 35.0209C21.525 35.0209 23.1337 34.3518 24.4719 33.0136C25.8101 31.6754 26.4792 30.0667 26.4792 28.1875V10.25H29.0417V28.1875C29.0417 30.807 28.1306 33.0278 26.3083 34.85C24.4861 36.6722 22.2653 37.5834 19.6458 37.5834Z" fill="#FEF7FF"/>
</svg>
